<svg xmlns="http://www.w3.org/2000/svg" viewBox="0 0 96 96" width="104" height="104" role="img" aria-label="Clove"><style>.s{fill:none;stroke:#585853;stroke-width:3;stroke-linecap:round}.f1,.f3,.sf{fill:#f1f1f0;stroke:#585853;stroke-width:3;stroke-linejoin:round}.f2{fill:#e7e7e5;stroke:#585853;stroke-width:3;stroke-linejoin:round}.dot{fill:#585853}.bg{fill:#F0F1E7}@media(prefers-color-scheme:dark){.s,.f1,.f2,.f3,.sf{stroke:#b8b5ae}.f1,.f3,.sf{fill:#242422}.f2{fill:#2c2c29}.dot{fill:#b8b5ae}.bg{fill:#242619}}</style><circle class="bg" cx="48" cy="50" r="42"/><path class="f1 sf" d="M32 36L44 68q2 5-2 6-4 1-6-3L26 39q-2-5 2-6 3-1 4 3z"/><path class="f2 sf" d="M34 30L24 23l2 9zM34 30L32 18l6 8zM34 30L44 19l-1 11zM34 30L47 33l-10 5z"/><path class="f1 sf" d="M33 24q7-1 8 5 0 6-6 6-7 0-7-6 0-4 5-5z"/><path class="f2 sf" d="M66 54L44 66q-4 2-2 6 2 4 6 2l22-12q4-2 2-6-2-3-6-2zM70 50l10-6-9-1zM70 50l6-10-10 4zM70 50l12 3-11 4z"/><path class="f1 sf" d="M68 46q7-2 9 4 1 7-6 7-7 0-8-5 0-5 5-6z"/></svg>