<svg xmlns="http://www.w3.org/2000/svg" viewBox="0 0 96 96" width="104" height="104" role="img" aria-label="Cockle"><style>.s{fill:none;stroke:#585853;stroke-width:3;stroke-linecap:round}.f1,.f3,.sf{fill:#f1f1f0;stroke:#585853;stroke-width:3;stroke-linejoin:round}.f2{fill:#e7e7e5;stroke:#585853;stroke-width:3;stroke-linejoin:round}.dot{fill:#585853}.bg{fill:#f1f1f0}@media(prefers-color-scheme:dark){.f1,.f3,.sf{fill:#242422}.f2{fill:#2c2c29}.bg{fill:#242422}}</style><circle class="bg" cx="48" cy="50" r="42"/><path class="f2 sf" d="M48 76q-22-12-22-32 0-11 9-13 8-2 13 6 5-8 13-6 9 2 9 13 0 20-22 32z"/><path class="s" d="M48 76V38M38 71q-5-16-1-29M58 71q5-16 1-29M31 62q-2-11 1-20M65 62q2-11-1-20"/><circle class="dot" cx="48" cy="34" r="2"/></svg>