<svg xmlns="http://www.w3.org/2000/svg" viewBox="0 0 96 96" width="104" height="104" role="img" aria-label="Filé powder"><style>.s{fill:none;stroke:#585853;stroke-width:3;stroke-linecap:round}.f1,.f3,.sf{fill:#f1f1f0;stroke:#585853;stroke-width:3;stroke-linejoin:round}.f2{fill:#e7e7e5;stroke:#585853;stroke-width:3;stroke-linejoin:round}.dot{fill:#585853}.bg{fill:#f1f1f0}@media(prefers-color-scheme:dark){.f1,.f3,.sf{fill:#242422}.f2{fill:#2c2c29}.bg{fill:#242422}}</style><circle class="bg" cx="48" cy="50" r="42"/><path class="f1 sf" d="M50 20q12 6 12 20 0 16-14 24-8-6-11-14-7 1-11-5t3-11q5-3 9 1 0-11 12-15z"/><path class="s" d="M48 32v30M48 46l-9-3"/><path class="s" d="M48 62q0 9-5 14"/><path class="dot" d="M60 70a1.5 1.5 0 103 0 1.5 1.5 0 10-3 0M66 76a1.5 1.5 0 103 0 1.5 1.5 0 10-3 0M58 79a1.5 1.5 0 103 0 1.5 1.5 0 10-3 0"/></svg>