<svg xmlns="http://www.w3.org/2000/svg" viewBox="0 0 96 96" width="104" height="104" role="img" aria-label="Hamburg parsley root"><style>.s{fill:none;stroke:#585853;stroke-width:3;stroke-linecap:round}.f1,.f3,.sf{fill:#f1f1f0;stroke:#585853;stroke-width:3;stroke-linejoin:round}.f2{fill:#e7e7e5;stroke:#585853;stroke-width:3;stroke-linejoin:round}.dot{fill:#585853}.bg{fill:#f1f1f0}@media(prefers-color-scheme:dark){.f1,.f3,.sf{fill:#242422}.f2{fill:#2c2c29}.bg{fill:#242422}}</style><circle class="bg" cx="48" cy="50" r="42"/><path class="f1 sf" d="M40 44h16l-4 26q-2 14-4 14t-4-14z"/><path class="s" d="M44 56l-6 5M52 60l6 5M45 70l-5 4"/><path class="f2 sf" d="M46 44q-14-2-19-12 11-4 19 4zM50 44q14-2 19-12-11-4-19 4zM48 40q-5-12 0-21 5 9 0 21z"/><path class="s" d="M33 33l6 3M40 28l4 5M63 33l-6 3M56 28l-4 5"/></svg>