<svg xmlns="http://www.w3.org/2000/svg" viewBox="0 0 96 96" width="104" height="104" role="img" aria-label="Rice paddy herb (ngò om)"><style>.s{fill:none;stroke:#585853;stroke-width:3;stroke-linecap:round}.f1,.f3,.sf{fill:#f1f1f0;stroke:#585853;stroke-width:3;stroke-linejoin:round}.f2{fill:#e7e7e5;stroke:#585853;stroke-width:3;stroke-linejoin:round}.dot{fill:#585853}.bg{fill:#f1f1f0}@media(prefers-color-scheme:dark){.f1,.f3,.sf{fill:#242422}.f2{fill:#2c2c29}.bg{fill:#242422}}</style><circle class="bg" cx="48" cy="50" r="42"/><path class="s" d="M48 78V24"/><path class="f2 sf" d="M48 34q-14 0-18-5 12-6 18 5zM48 34q14 0 18-5-12-6-18 5zM48 48q-14 0-18-5 12-6 18 5zM48 48q14 0 18-5-12-6-18 5zM48 62q-12 0-16-5 11-5 16 5zM48 62q12 0 16-5-11-5-16 5z"/><path class="s" d="M18 74q8-4 15 0t15 0 15 0 15 0"/></svg>