<svg xmlns="http://www.w3.org/2000/svg" viewBox="0 0 96 96" width="104" height="104" role="img" aria-label="Sacha inchi"><style>.s{fill:none;stroke:#585853;stroke-width:3;stroke-linecap:round}.f1,.f3,.sf{fill:#f1f1f0;stroke:#585853;stroke-width:3;stroke-linejoin:round}.f2{fill:#e7e7e5;stroke:#585853;stroke-width:3;stroke-linejoin:round}.dot{fill:#585853}.bg{fill:#F0F1E7}@media(prefers-color-scheme:dark){.s,.f1,.f2,.f3,.sf{stroke:#b8b5ae}.f1,.f3,.sf{fill:#242422}.f2{fill:#2c2c29}.dot{fill:#b8b5ae}.bg{fill:#242619}}</style><circle class="bg" cx="48" cy="50" r="42"/><path class="f1 sf" d="M48 16q6 10 9 20 13-4 21 2-6 12-16 15 6 7 5 21-9 0-19-11-10 11-19 11-1-12 5-21-10-3-16-15 8-6 21-2 3-10 9-20z"/><path class="s" d="M48 48L57 36M48 48L62 53M48 48L48 63M48 48L34 53M48 48L39 36" stroke-width="1.5"/><path class="f2 sf" d="M43 45q5-5 10 0 5 5 0 10-5 5-10 0-5-5 0-10z"/><path class="f2 sf" d="M36 68q8-2 10 4 2 7-5 9-9 0-10-6 0-6 5-7zM54 68q9-2 11 4 2 7-5 9-9 0-10-6 0-6 4-7z"/></svg>